# xmcd
#
# Track frame offsets:
#	150
#	11559
#	28832
#	46307
#	65090
#	84080
#	103829
#	117472
#	130531
#	151311
#	168101
#	193500
#	222788
#	243462
#	262926
#	291641
#	306901
#
# Disc length: 4766 seconds
#
# Revision: 0
# Processed by: cddbd v1.5.2PL0 Copyright (c) Steve Scherf et al.
# Submitted via: EZCDAudioConverter 2.1.7.1
#
DISCID=eb129c11
DTITLE=Jah Wobble - Redux 5/6
DYEAR=1900
DGENRE=
TTITLE0=Jah Wobble - Fly 8
TTITLE1=Jah Wobble's Invaders Of The Heart - No Change Is Sexy
TTITLE2=Jah Wobble's Invaders Of The Heart - Bagpipe Music
TTITLE3=Jah Wobble - Highgate
TTITLE4=Jah Wobble's Invaders Of The Heart - I Love Everybody
TTITLE5=Jah Wobble and Julie Campbell - Ruinlust
TTITLE6=Jah Wobble - Post Modern
TTITLE7=Jah Wobble - It All Fades Away
TTITLE8=Jah Wobble - Ocean Of Hills
TTITLE9=Jah Wobble - Gardens Of Suburbia
TTITLE10=Jah Wobble - Requiem II
TTITLE11=Jah Wobble - Softwear
TTITLE12=Jah Wobble - Car Ad Music 2
TTITLE13=Jah Wobble - Sacred
TTITLE14=Jah Wobble's Invaders Of The Heart - Gone In The Wind
TTITLE15=Jah Wobble - Late 19th
TTITLE16=Jah Wobble - Divine Mother
EXTD=
EXTT0=
EXTT1=
EXTT2=
EXTT3=
EXTT4=
EXTT5=
EXTT6=
EXTT7=
EXTT8=
EXTT9=
EXTT10=
EXTT11=
EXTT12=
EXTT13=
EXTT14=
EXTT15=
EXTT16=
PLAYORDER=
